<svg id="AppDynamics_Logo" data-name="AppDynamics Logo" xmlns="http://www.w3.org/2000/svg" viewBox="0 0 994.51 118.54"><title>AppDynamicsLogo_hover</title><path d="M408.26,148.6c-9.09,0-18.44.09-27.54,0.09v59.5h3.85a5.67,5.67,0,0,0,5.67-5.67v-12.6h18C436.73,189.74,436.65,148.6,408.26,148.6Zm0,32.55h-18v-23.8h18C423.9,157.35,424,181.15,408.26,181.15ZM555,148.68H532.49v59.5H555c20.82,0,30.17-15.21,29.83-30.26C584.59,163.22,575.33,148.68,555,148.68ZM555,199H541.92V157.78H555c14,0,20.14,10,20.4,20.06C575.67,188.29,569.55,199,555,199Zm-70.87-50.4c-9.09,0-18.44.09-27.54,0.09v59.5h3.85a5.67,5.67,0,0,0,5.67-5.67v-12.6h18C512.62,189.74,512.53,148.6,484.14,148.6Zm0,32.55h-18v-23.8h18C499.78,157.35,499.87,181.15,484.14,181.15ZM317.33,148.68l-26.69,59.5h10.11l5.61-12.49h32.21l5.7,12.49h10.11l-26.69-59.5H317.33ZM309.94,187l12.58-28.3L335.1,187H309.94Zm706.75-30.34a21.68,21.68,0,0,1,15.38,6.38l6.49-6.49a30.94,30.94,0,1,0,0,43.73l-6.49-6.49A21.76,21.76,0,1,1,1016.69,156.67ZM947,154.35v53.83h3.77a5.67,5.67,0,0,0,5.67-5.67V148.68H952.7A5.67,5.67,0,0,0,947,154.35Zm142.59,18.38c-7.82-1.1-14.45-2.72-14.45-8.5s5.78-9,13.77-9c6.2,0.09,11.9,2.55,14.7,6.63l7.23-4.85c-5-8-13.6-10-22.18-10-10.71,0-23,4.76-22.95,17.08,0,12.75,11.22,15.72,23,17.34,8.33,1.11,15.21,3.31,15.21,9.77,0,7.48-7.9,9.86-15,9.86-6.88,0-14.28-2.55-18.53-9.77l-7.14,4.76c5.44,10,14.19,13.51,25.58,13.51,12.41,0,24.56-5,24.65-18.36S1101.85,174.44,1089.62,172.74Zm-458.52,2.21-16.4-26.27H603.38v0.42l22.95,34.68v24.39h3.85a5.67,5.67,0,0,0,5.67-5.67V183.79l23.63-34.68v-0.42H648Zm252.33,1.7-19.63-27.88H852.73v59.5h3.85a5.67,5.67,0,0,0,5.67-5.67v-40l20,28.13h2l20.23-28.13v45.64h3.85A5.67,5.67,0,0,0,914,202.6V148.77H903ZM726.86,154.35V191l-33.74-42.33H685.8v59.5h3.94a5.67,5.67,0,0,0,5.67-5.67V166.19l33.74,42h7.22v-59.5h-3.85A5.67,5.67,0,0,0,726.86,154.35Zm62.49-5.67-26.69,59.5h10.11l5.61-12.49h32.21l5.69,12.49H826.4l-26.69-59.5H789.35ZM782,187l12.58-28.3L807.11,187H782Z" transform="translate(-118.99 -118.99)" style="fill:#fff"/><path d="M160.94,119a64.63,64.63,0,0,0-15.52,1.87L155,142.34a42.7,42.7,0,0,1,6-.42,41.94,41.94,0,0,1,26.86,74.14l9.56,21.47A64.86,64.86,0,0,0,160.94,119Zm-10.55,69.32-16.33-36.65a41.94,41.94,0,0,0,26.87,74.14,42.48,42.48,0,0,0,6-.42l-16.27-36.56C150.54,188.65,150.46,188.49,150.39,188.31Zm69,40.32h1.11v3.6h0.75v-3.6h1.11V228h-3v0.64Zm6.76-.64L225,230.78,223.89,228H223.1v4.24h0.75v-2.68l0.92,2.29h0.45l0.92-2.29v2.68h0.75V228h-0.79Z" transform="translate(-118.99 -118.99)" style="fill:#fff"/></svg>