<?xml version="1.0" encoding="utf-8"?>
<!-- Generator: Adobe Illustrator 18.1.1, SVG Export Plug-In . SVG Version: 6.00 Build 0)  -->
<!DOCTYPE svg PUBLIC "-//W3C//DTD SVG 1.1//EN" "http://www.w3.org/Graphics/SVG/1.1/DTD/svg11.dtd">
<svg version="1.1" xmlns="http://www.w3.org/2000/svg" xmlns:xlink="http://www.w3.org/1999/xlink" x="0px" y="0px" width="24px"
	 height="24px" viewBox="0 0 24 24" enable-background="new 0 0 24 24" xml:space="preserve">
<g id="Layer_2" display="none">
	<g id="Layer_1" display="inline">
		<circle fill="none" stroke="#DBDBDB" stroke-width="0.1" stroke-miterlimit="10" cx="12.01047" cy="11.93344" r="5"/>
		<path fill="none" stroke="#DBDBDB" stroke-width="0.1" stroke-miterlimit="10" d="M17.99414,22.97273h-12c-1.1,0-2-0.9-2-2
			V2.97151c0-1.1,0.9-2,2-2h12c1.1,0,2,0.9,2,2v18.00122C19.99414,22.07273,19.09414,22.97273,17.99414,22.97273z"/>
		<path fill="none" stroke="#DBDBDB" stroke-width="0.1" stroke-miterlimit="10" d="M19.50977,21.48774H4.47852c-1.1,0-2-0.9-2-2
			V4.45649c0-1.1,0.9-2,2-2h15.03125c1.1,0,2,0.9,2,2v15.03125C21.50977,20.58774,20.60977,21.48774,19.50977,21.48774z"/>
		<path fill="none" stroke="#DBDBDB" stroke-width="0.1" stroke-miterlimit="10" d="M0.99353,17.97212v-12c0-1.1,0.9-2,2-2h18.00122
			c1.1,0,2,0.9,2,2v12c0,1.1-0.9,2-2,2H2.99353C1.89353,19.97212,0.99353,19.07212,0.99353,17.97212z"/>
	</g>
	<g id="lines" display="inline">
		
			<line fill="none" stroke="#DBDBDB" stroke-width="0.1" stroke-miterlimit="10" x1="15.52083" y1="-0.02788" x2="15.52083" y2="24"/>
		
			<line fill="none" stroke="#DBDBDB" stroke-width="0.1" stroke-miterlimit="10" x1="11.97917" y1="-0.02788" x2="11.97917" y2="24"/>
		<line fill="none" stroke="#DBDBDB" stroke-width="0.1" stroke-miterlimit="10" x1="8.47917" y1="-0.02788" x2="8.47917" y2="24"/>
		
			<line fill="none" stroke="#DBDBDB" stroke-width="0.1" stroke-miterlimit="10" x1="0.00548" y1="8.447" x2="24.00548" y2="8.447"/>
		
			<line fill="none" stroke="#DBDBDB" stroke-width="0.1" stroke-miterlimit="10" x1="0.00548" y1="11.98866" x2="24.00548" y2="11.98866"/>
		
			<line fill="none" stroke="#DBDBDB" stroke-width="0.1" stroke-miterlimit="10" x1="0.00548" y1="15.48866" x2="24.00548" y2="15.48866"/>
		
			<line fill="none" stroke="#DBDBDB" stroke-width="0.1" stroke-miterlimit="10" x1="-0.00586" y1="-0.02788" x2="23.99414" y2="23.97212"/>
		
			<line fill="none" stroke="#DBDBDB" stroke-width="0.1" stroke-miterlimit="10" x1="23.99414" y1="-0.02788" x2="-0.00586" y2="23.97212"/>
	</g>
</g>
<g id="Layer_4">
	<g>
		<rect x="11" y="17" fill="none" width="2" height="2"/>
		<rect x="11" y="7" fill="none" width="2" height="8"/>
		<path fill="#FFD24D" d="M21.73334,17.91882l-3.98108-7.03979l-3.82324-6.7608c-0.81982-1.44965-2.98059-1.44965-3.80042,0
			l-3.8233,6.7608l-3.98102,7.03979C1.53888,19.30762,2.58258,21,4.22449,21h7.80432h7.80432
			C21.47504,21,22.51874,19.30762,21.73334,17.91882z M13,19h-2v-2h2V19z M13,15h-2V7h2V15z"/>
	</g>
	
		<image overflow="visible" width="211" height="466" xlink:href="../../../../../Desktop/Screen Shot 2015-04-16 at 4.48.56 PM.png"  transform="matrix(1 0 0 1 238 -219.33333)">
	</image>
</g>
</svg>
